<?xml version="1.0" encoding="utf-8"?>
<!-- Generator: Adobe Illustrator 15.0.0, SVG Export Plug-In . SVG Version: 6.00 Build 0)  -->
<!DOCTYPE svg PUBLIC "-//W3C//DTD SVG 1.1//EN" "http://www.w3.org/Graphics/SVG/1.1/DTD/svg11.dtd">
<svg version="1.1" id="Layer_1" xmlns="http://www.w3.org/2000/svg" xmlns:xlink="http://www.w3.org/1999/xlink" x="0px" y="0px"
	 width="538.583px" height="255.118px" viewBox="0 0 538.583 255.118" enable-background="new 0 0 538.583 255.118"
	 xml:space="preserve">
<g>
	<path d="M74.308,94.37h6.058c10.694,0,17.847-5.271,17.847-16.905c0-8.416-3.927-16.832-15.409-16.832H62.986v56.146h11.321V94.37z
		 M74.308,68.968h4.723c5.657,0,7.861,3.146,7.861,8.649c0,5.744-3.066,8.416-7.548,8.416h-5.036V68.968z"/>
	<path d="M117.096,93.034h6.059c4.562,0,6.525,2.672,6.686,7.073l0.313,10.773c0.081,2.204,0.314,4.329,1.416,5.898h12.264v-0.468
		c-2.117-1.102-2.438-4.168-2.512-10.065c-0.16-11.876-1.342-16.124-9.043-17.146v-0.153c6.365-1.343,9.357-6.372,9.357-13.847
		c0-9.591-5.664-14.467-14.941-14.467h-20.92v56.146h11.321V93.034z M117.096,68.968h5.351c5.109,0,7.861,2.598,7.861,7.788
		c0,6.051-3.066,8.409-8.489,8.409h-4.723V68.968z"/>
	<path d="M169.401,117.88c16.986,0,19.11-12.109,19.11-29.175c0-17.066-2.124-29.176-19.11-29.176
		c-16.985,0-19.109,12.109-19.109,29.176C150.292,105.771,152.416,117.88,169.401,117.88z M169.401,67.866
		c6.687,0,7.788,5.824,7.788,20.84c0,15.102-1.102,20.839-7.788,20.839c-6.686,0-7.781-5.737-7.781-20.839
		C161.62,73.69,162.716,67.866,169.401,67.866z"/>
	<path d="M234.839,87.924c0-16.519-2.832-27.292-18.555-27.292h-18.562v56.146h17.854
		C230.598,116.779,234.839,107.815,234.839,87.924z M209.05,108.443V68.968h4.796c8.65,0,9.672,6.525,9.672,19.27
		c0,15.256-1.576,20.205-9.438,20.205H209.05z"/>
	<path d="M261.51,117.88c9.197,0,17.928-3.773,17.928-18.087V60.632h-11.321v39.161c0,5.584-1.343,9.751-6.606,9.751
		c-5.27,0-6.605-4.167-6.605-9.751V60.632h-11.328v39.161C243.576,114.815,252.306,117.88,261.51,117.88z"/>
	<polygon points="320.575,107.5 299.262,107.5 320.262,69.202 320.262,60.632 287.94,60.632 287.94,69.91 307.21,69.91 
		286.524,108.523 286.524,116.779 320.575,116.779 	"/>
	<rect x="328.918" y="60.632" width="11.328" height="56.146"/>
	<path d="M368.56,117.88c16.986,0,19.11-12.109,19.11-29.175c0-17.066-2.124-29.176-19.11-29.176
		c-16.985,0-19.109,12.109-19.109,29.176C349.45,105.771,351.574,117.88,368.56,117.88z M368.56,67.866
		c6.68,0,7.781,5.824,7.781,20.84c0,15.102-1.102,20.839-7.781,20.839c-6.686,0-7.788-5.737-7.788-20.839
		C360.771,73.69,361.874,67.866,368.56,67.866z"/>
	<polygon points="406.706,77.464 406.866,77.464 420.705,116.779 433.604,116.779 433.604,60.632 423.224,60.632 423.224,99.085 
		423.063,99.085 409.384,60.632 396.326,60.632 396.326,116.779 406.706,116.779 	"/>
	<polygon points="475.604,107.5 454.764,107.5 454.764,92.406 473.64,92.406 473.64,83.122 454.764,83.122 454.764,69.91 
		474.815,69.91 474.815,60.632 443.442,60.632 443.442,116.779 475.604,116.779 	"/>
	<polygon points="94.359,186.304 74.308,186.304 74.308,139.435 62.986,139.435 62.986,195.582 94.359,195.582 	"/>
	<polygon points="135.243,186.304 114.404,186.304 114.404,171.208 133.279,171.208 133.279,161.924 114.404,161.924 
		114.404,148.712 134.455,148.712 134.455,139.435 103.082,139.435 103.082,195.582 135.243,195.582 	"/>
	<polygon points="154.968,156.267 155.121,156.267 168.968,195.582 181.858,195.582 181.858,139.435 171.479,139.435 
		171.479,177.888 171.325,177.888 157.64,139.435 144.588,139.435 144.588,195.582 154.968,195.582 	"/>
	<polygon points="202.691,195.582 214.013,195.582 214.013,148.712 226.283,148.712 226.283,139.435 190.422,139.435 
		190.422,148.712 202.691,148.712 	"/>
	<path d="M238.379,195.582l2.599-11.869h14.941l2.592,11.869h11.796l-14.861-56.146h-14l-14.861,56.146H238.379z M248.365,149.187
		h0.16l5.424,25.241h-11.008L248.365,149.187z"/>
	<polygon points="292.636,195.582 299.636,195.582 284.774,139.435 277.774,139.435 	"/>
	<polygon points="307.104,139.435 321.965,195.582 328.965,195.582 314.104,139.435 	"/>
	<polygon points="351.287,195.582 358.287,195.582 343.426,139.435 336.426,139.435 	"/>
	<polygon points="365.755,139.435 380.616,195.582 387.616,195.582 372.755,139.435 	"/>
	<polygon points="416.945,195.582 402.084,139.435 395.084,139.435 409.945,195.582 	"/>
	<polygon points="424.412,139.435 439.274,195.582 446.274,195.582 431.412,139.435 	"/>
	<polygon points="453.735,139.435 468.597,195.582 475.597,195.582 460.735,139.435 	"/>
	<path d="M0,0v255.118h538.583V0H0z M531.743,248.278H6.84V6.84h524.903V248.278z"/>
</g>
</svg>
