<?xml version="1.0" standalone="no"?>
<!DOCTYPE svg PUBLIC "-//W3C//DTD SVG 20010904//EN"
 "http://www.w3.org/TR/2001/REC-SVG-20010904/DTD/svg10.dtd">
<svg version="1.0" xmlns="http://www.w3.org/2000/svg"
 width="160.000000pt" height="160.000000pt" viewBox="0 0 160.000000 160.000000"
 preserveAspectRatio="xMidYMid meet">
<metadata>
Created by potrace 1.11, written by Peter Selinger 2001-2013
</metadata>
<g transform="translate(0.000000,160.000000) scale(0.100000,-0.100000)"
fill="#000000" stroke="none">
<path d="M0 800 l0 -800 800 0 800 0 0 800 0 800 -800 0 -800 0 0 -800z m430
0 l67 -255 -29 -3 c-17 -2 -32 -1 -34 1 -3 3 -36 120 -73 261 l-68 257 35 -3
35 -3 67 -255z m210 223 c6 -21 37 -137 69 -258 l58 -220 -29 -3 c-17 -2 -32
-1 -35 1 -2 3 -34 115 -69 249 -35 133 -66 249 -69 256 -3 8 7 12 30 12 31 0
35 -4 45 -37z m271 -5 c6 -24 37 -140 68 -258 l58 -215 -30 -3 c-17 -2 -33 2
-38 9 -4 7 -19 58 -33 113 -14 56 -43 167 -65 249 l-39 147 33 0 c32 0 35 -3
46 -42z m259 40 c0 -2 31 -119 69 -261 l68 -258 -35 3 -35 3 -28 105 c-15 58
-45 174 -67 258 l-41 152 35 0 c19 0 34 -1 34 -2z"/>
</g>
</svg>
